<?xml version="1.0" encoding="UTF-8"?>
<svg id="Layer_2" data-name="Layer 2" xmlns="http://www.w3.org/2000/svg" xmlns:xlink="http://www.w3.org/1999/xlink" viewBox="0 0 471.78 509.71">
  <defs>
    <style>
      .cls-1 {
        fill: url(#New_Gradient_Swatch_1);
      }

      .cls-2 {
        fill: url(#New_Gradient_Swatch_1-2);
      }
    </style>
    <linearGradient id="New_Gradient_Swatch_1" data-name="New Gradient Swatch 1" x1="92.21" y1="144.37" x2="379.57" y2="144.37" gradientUnits="userSpaceOnUse">
      <stop offset="0" stop-color="#e77630"/>
      <stop offset="1" stop-color="#f1ad83"/>
    </linearGradient>
    <linearGradient id="New_Gradient_Swatch_1-2" data-name="New Gradient Swatch 1" x1="0" y1="254.86" x2="471.78" y2="254.86" xlink:href="#New_Gradient_Swatch_1"/>
  </defs>
  <g id="Layer_1-2" data-name="Layer 1">
    <g>
      <path class="cls-1" d="m379.51,143.32c.08.7.08,1.4,0,2.07-.42,3.32-3.32,5.8-6.64,6.2l-111.44,14.3c-1.33.7-2.43,1.8-3.15,3.11l-14.62,26.72c-2.96,5.46-10.81,5.46-13.82,0l-14.6-26.72c-.72-1.31-1.82-2.41-3.13-3.11l-113.19-14.3c-3.32-.4-6.2-2.88-6.62-6.18-.11-.7-.11-1.4,0-2.1.42-3.32,3.3-5.78,6.62-6.18l113.19-14.3c1.31-.72,2.41-1.8,3.13-3.13l14.6-26.7c3-5.46,10.85-5.46,13.82,0l14.62,26.7c.72,1.33,1.82,2.41,3.15,3.13l111.44,14.3c3.32.38,6.22,2.86,6.64,6.18Z"/>
      <path class="cls-2" d="m415.14,85.96L292.55,15.17c-35.06-20.23-78.24-20.23-113.3,0L56.66,85.96C21.6,106.19,0,143.6,0,184.07v141.57c0,40.48,21.6,77.88,56.66,98.11l122.59,70.77c35.06,20.25,78.24,20.25,113.3,0l122.59-70.77c35.06-20.23,56.64-57.63,56.64-98.11v-141.57c0-40.48-21.58-77.88-56.64-98.11Zm-14.28,81.54l-20.35,12.4-102.47,62.42c-22.66,13.82-59.6,14.15-82.52.76l-103.59-60.57-20.54-12.02c-22.91-13.41-23.1-35.46-.44-49.26l122.8-74.84c22.66-13.8,59.6-14.13,82.52-.74l124.15,72.59c22.91,13.39,23.1,35.44.44,49.26Z"/>
      <path class="cls-1" d="m379.51,145.4c-.42,3.32-3.32,5.8-6.64,6.2l-111.44,14.3c-1.33.7-2.43,1.8-3.15,3.11l-14.62,26.72c-2.96,5.46-10.81,5.46-13.82,0l-14.6-26.72c-.72-1.31-1.82-2.41-3.13-3.11l-113.19-14.3c-3.32-.4-6.2-2.88-6.62-6.18-.11-.7-.11-1.4,0-2.1.42-3.32,3.3-5.78,6.62-6.18l113.19-14.3c1.31-.72,2.41-1.8,3.13-3.13l14.6-26.7c3-5.46,10.85-5.46,13.82,0l14.62,26.7c.72,1.33,1.82,2.41,3.15,3.13l111.44,14.3c3.32.38,6.22,2.86,6.64,6.18.08.7.08,1.4,0,2.07Z"/>
      <path class="cls-1" d="m379.51,145.4c-.42,3.32-3.32,5.8-6.64,6.2l-111.44,14.3c-1.33.7-2.43,1.8-3.15,3.11l-14.62,26.72c-2.96,5.46-10.81,5.46-13.82,0l-14.6-26.72c-.72-1.31-1.82-2.41-3.13-3.11l-113.19-14.3c-3.32-.4-6.2-2.88-6.62-6.18-.11-.7-.11-1.4,0-2.1.42-3.32,3.3-5.78,6.62-6.18l113.19-14.3c1.31-.72,2.41-1.8,3.13-3.13l14.6-26.7c3-5.46,10.85-5.46,13.82,0l14.62,26.7c.72,1.33,1.82,2.41,3.15,3.13l111.44,14.3c3.32.38,6.22,2.86,6.64,6.18.08.7.08,1.4,0,2.07Z"/>
    </g>
  </g>
</svg>